<?xml version="1.0" encoding="UTF-8"?>
<svg version="1.1" baseProfile="tiny" xmlns="http://www.w3.org/2000/svg" width="400" height="400">
<rect shape-rendering="optimizeSpeed"  x="0" y="0" width="400" height="400" fill="white" />
<rect shape-rendering="optimizeSpeed"  x="26" y="26" width="12" height="12" fill="black" />
<rect shape-rendering="optimizeSpeed"  x="38" y="26" width="12" height="12" fill="black" />
<rect shape-rendering="optimizeSpeed"  x="50" y="26" width="12" height="12" fill="black" />
<rect shape-rendering="optimizeSpeed"  x="62" y="26" width="12" height="12" fill="black" />
<rect shape-rendering="optimizeSpeed"  x="74" y="26" width="12" height="12" fill="black" />
<rect shape-rendering="optimizeSpeed"  x="86" y="26" width="12" height="12" fill="black" />
<rect shape-rendering="optimizeSpeed"  x="98" y="26" width="12" height="12" fill="black" />
<rect shape-rendering="optimizeSpeed"  x="146" y="26" width="12" height="12" fill="black" />
<rect shape-rendering="optimizeSpeed"  x="170" y="26" width="12" height="12" fill="black" />
<rect shape-rendering="optimizeSpeed"  x="182" y="26" width="12" height="12" fill="black" />
<rect shape-rendering="optimizeSpeed"  x="218" y="26" width="12" height="12" fill="black" />
<rect shape-rendering="optimizeSpeed"  x="242" y="26" width="12" height="12" fill="black" />
<rect shape-rendering="optimizeSpeed"  x="254" y="26" width="12" height="12" fill="black" />
<rect shape-rendering="optimizeSpeed"  x="266" y="26" width="12" height="12" fill="black" />
<rect shape-rendering="optimizeSpeed"  x="290" y="26" width="12" height="12" fill="black" />
<rect shape-rendering="optimizeSpeed"  x="302" y="26" width="12" height="12" fill="black" />
<rect shape-rendering="optimizeSpeed"  x="314" y="26" width="12" height="12" fill="black" />
<rect shape-rendering="optimizeSpeed"  x="326" y="26" width="12" height="12" fill="black" />
<rect shape-rendering="optimizeSpeed"  x="338" y="26" width="12" height="12" fill="black" />
<rect shape-rendering="optimizeSpeed"  x="350" y="26" width="12" height="12" fill="black" />
<rect shape-rendering="optimizeSpeed"  x="362" y="26" width="12" height="12" fill="black" />
<rect shape-rendering="optimizeSpeed"  x="26" y="38" width="12" height="12" fill="black" />
<rect shape-rendering="optimizeSpeed"  x="98" y="38" width="12" height="12" fill="black" />
<rect shape-rendering="optimizeSpeed"  x="122" y="38" width="12" height="12" fill="black" />
<rect shape-rendering="optimizeSpeed"  x="146" y="38" width="12" height="12" fill="black" />
<rect shape-rendering="optimizeSpeed"  x="206" y="38" width="12" height="12" fill="black" />
<rect shape-rendering="optimizeSpeed"  x="230" y="38" width="12" height="12" fill="black" />
<rect shape-rendering="optimizeSpeed"  x="242" y="38" width="12" height="12" fill="black" />
<rect shape-rendering="optimizeSpeed"  x="266" y="38" width="12" height="12" fill="black" />
<rect shape-rendering="optimizeSpeed"  x="290" y="38" width="12" height="12" fill="black" />
<rect shape-rendering="optimizeSpeed"  x="362" y="38" width="12" height="12" fill="black" />
<rect shape-rendering="optimizeSpeed"  x="26" y="50" width="12" height="12" fill="black" />
<rect shape-rendering="optimizeSpeed"  x="50" y="50" width="12" height="12" fill="black" />
<rect shape-rendering="optimizeSpeed"  x="62" y="50" width="12" height="12" fill="black" />
<rect shape-rendering="optimizeSpeed"  x="74" y="50" width="12" height="12" fill="black" />
<rect shape-rendering="optimizeSpeed"  x="98" y="50" width="12" height="12" fill="black" />
<rect shape-rendering="optimizeSpeed"  x="170" y="50" width="12" height="12" fill="black" />
<rect shape-rendering="optimizeSpeed"  x="218" y="50" width="12" height="12" fill="black" />
<rect shape-rendering="optimizeSpeed"  x="242" y="50" width="12" height="12" fill="black" />
<rect shape-rendering="optimizeSpeed"  x="266" y="50" width="12" height="12" fill="black" />
<rect shape-rendering="optimizeSpeed"  x="290" y="50" width="12" height="12" fill="black" />
<rect shape-rendering="optimizeSpeed"  x="314" y="50" width="12" height="12" fill="black" />
<rect shape-rendering="optimizeSpeed"  x="326" y="50" width="12" height="12" fill="black" />
<rect shape-rendering="optimizeSpeed"  x="338" y="50" width="12" height="12" fill="black" />
<rect shape-rendering="optimizeSpeed"  x="362" y="50" width="12" height="12" fill="black" />
<rect shape-rendering="optimizeSpeed"  x="26" y="62" width="12" height="12" fill="black" />
<rect shape-rendering="optimizeSpeed"  x="50" y="62" width="12" height="12" fill="black" />
<rect shape-rendering="optimizeSpeed"  x="62" y="62" width="12" height="12" fill="black" />
<rect shape-rendering="optimizeSpeed"  x="74" y="62" width="12" height="12" fill="black" />
<rect shape-rendering="optimizeSpeed"  x="98" y="62" width="12" height="12" fill="black" />
<rect shape-rendering="optimizeSpeed"  x="122" y="62" width="12" height="12" fill="black" />
<rect shape-rendering="optimizeSpeed"  x="134" y="62" width="12" height="12" fill="black" />
<rect shape-rendering="optimizeSpeed"  x="146" y="62" width="12" height="12" fill="black" />
<rect shape-rendering="optimizeSpeed"  x="170" y="62" width="12" height="12" fill="black" />
<rect shape-rendering="optimizeSpeed"  x="182" y="62" width="12" height="12" fill="black" />
<rect shape-rendering="optimizeSpeed"  x="194" y="62" width="12" height="12" fill="black" />
<rect shape-rendering="optimizeSpeed"  x="230" y="62" width="12" height="12" fill="black" />
<rect shape-rendering="optimizeSpeed"  x="242" y="62" width="12" height="12" fill="black" />
<rect shape-rendering="optimizeSpeed"  x="266" y="62" width="12" height="12" fill="black" />
<rect shape-rendering="optimizeSpeed"  x="290" y="62" width="12" height="12" fill="black" />
<rect shape-rendering="optimizeSpeed"  x="314" y="62" width="12" height="12" fill="black" />
<rect shape-rendering="optimizeSpeed"  x="326" y="62" width="12" height="12" fill="black" />
<rect shape-rendering="optimizeSpeed"  x="338" y="62" width="12" height="12" fill="black" />
<rect shape-rendering="optimizeSpeed"  x="362" y="62" width="12" height="12" fill="black" />
<rect shape-rendering="optimizeSpeed"  x="26" y="74" width="12" height="12" fill="black" />
<rect shape-rendering="optimizeSpeed"  x="50" y="74" width="12" height="12" fill="black" />
<rect shape-rendering="optimizeSpeed"  x="62" y="74" width="12" height="12" fill="black" />
<rect shape-rendering="optimizeSpeed"  x="74" y="74" width="12" height="12" fill="black" />
<rect shape-rendering="optimizeSpeed"  x="98" y="74" width="12" height="12" fill="black" />
<rect shape-rendering="optimizeSpeed"  x="134" y="74" width="12" height="12" fill="black" />
<rect shape-rendering="optimizeSpeed"  x="194" y="74" width="12" height="12" fill="black" />
<rect shape-rendering="optimizeSpeed"  x="230" y="74" width="12" height="12" fill="black" />
<rect shape-rendering="optimizeSpeed"  x="242" y="74" width="12" height="12" fill="black" />
<rect shape-rendering="optimizeSpeed"  x="254" y="74" width="12" height="12" fill="black" />
<rect shape-rendering="optimizeSpeed"  x="266" y="74" width="12" height="12" fill="black" />
<rect shape-rendering="optimizeSpeed"  x="290" y="74" width="12" height="12" fill="black" />
<rect shape-rendering="optimizeSpeed"  x="314" y="74" width="12" height="12" fill="black" />
<rect shape-rendering="optimizeSpeed"  x="326" y="74" width="12" height="12" fill="black" />
<rect shape-rendering="optimizeSpeed"  x="338" y="74" width="12" height="12" fill="black" />
<rect shape-rendering="optimizeSpeed"  x="362" y="74" width="12" height="12" fill="black" />
<rect shape-rendering="optimizeSpeed"  x="26" y="86" width="12" height="12" fill="black" />
<rect shape-rendering="optimizeSpeed"  x="98" y="86" width="12" height="12" fill="black" />
<rect shape-rendering="optimizeSpeed"  x="122" y="86" width="12" height="12" fill="black" />
<rect shape-rendering="optimizeSpeed"  x="134" y="86" width="12" height="12" fill="black" />
<rect shape-rendering="optimizeSpeed"  x="158" y="86" width="12" height="12" fill="black" />
<rect shape-rendering="optimizeSpeed"  x="170" y="86" width="12" height="12" fill="black" />
<rect shape-rendering="optimizeSpeed"  x="194" y="86" width="12" height="12" fill="black" />
<rect shape-rendering="optimizeSpeed"  x="206" y="86" width="12" height="12" fill="black" />
<rect shape-rendering="optimizeSpeed"  x="230" y="86" width="12" height="12" fill="black" />
<rect shape-rendering="optimizeSpeed"  x="290" y="86" width="12" height="12" fill="black" />
<rect shape-rendering="optimizeSpeed"  x="362" y="86" width="12" height="12" fill="black" />
<rect shape-rendering="optimizeSpeed"  x="26" y="98" width="12" height="12" fill="black" />
<rect shape-rendering="optimizeSpeed"  x="38" y="98" width="12" height="12" fill="black" />
<rect shape-rendering="optimizeSpeed"  x="50" y="98" width="12" height="12" fill="black" />
<rect shape-rendering="optimizeSpeed"  x="62" y="98" width="12" height="12" fill="black" />
<rect shape-rendering="optimizeSpeed"  x="74" y="98" width="12" height="12" fill="black" />
<rect shape-rendering="optimizeSpeed"  x="86" y="98" width="12" height="12" fill="black" />
<rect shape-rendering="optimizeSpeed"  x="98" y="98" width="12" height="12" fill="black" />
<rect shape-rendering="optimizeSpeed"  x="122" y="98" width="12" height="12" fill="black" />
<rect shape-rendering="optimizeSpeed"  x="146" y="98" width="12" height="12" fill="black" />
<rect shape-rendering="optimizeSpeed"  x="170" y="98" width="12" height="12" fill="black" />
<rect shape-rendering="optimizeSpeed"  x="194" y="98" width="12" height="12" fill="black" />
<rect shape-rendering="optimizeSpeed"  x="218" y="98" width="12" height="12" fill="black" />
<rect shape-rendering="optimizeSpeed"  x="242" y="98" width="12" height="12" fill="black" />
<rect shape-rendering="optimizeSpeed"  x="266" y="98" width="12" height="12" fill="black" />
<rect shape-rendering="optimizeSpeed"  x="290" y="98" width="12" height="12" fill="black" />
<rect shape-rendering="optimizeSpeed"  x="302" y="98" width="12" height="12" fill="black" />
<rect shape-rendering="optimizeSpeed"  x="314" y="98" width="12" height="12" fill="black" />
<rect shape-rendering="optimizeSpeed"  x="326" y="98" width="12" height="12" fill="black" />
<rect shape-rendering="optimizeSpeed"  x="338" y="98" width="12" height="12" fill="black" />
<rect shape-rendering="optimizeSpeed"  x="350" y="98" width="12" height="12" fill="black" />
<rect shape-rendering="optimizeSpeed"  x="362" y="98" width="12" height="12" fill="black" />
<rect shape-rendering="optimizeSpeed"  x="134" y="110" width="12" height="12" fill="black" />
<rect shape-rendering="optimizeSpeed"  x="146" y="110" width="12" height="12" fill="black" />
<rect shape-rendering="optimizeSpeed"  x="158" y="110" width="12" height="12" fill="black" />
<rect shape-rendering="optimizeSpeed"  x="206" y="110" width="12" height="12" fill="black" />
<rect shape-rendering="optimizeSpeed"  x="242" y="110" width="12" height="12" fill="black" />
<rect shape-rendering="optimizeSpeed"  x="26" y="122" width="12" height="12" fill="black" />
<rect shape-rendering="optimizeSpeed"  x="38" y="122" width="12" height="12" fill="black" />
<rect shape-rendering="optimizeSpeed"  x="50" y="122" width="12" height="12" fill="black" />
<rect shape-rendering="optimizeSpeed"  x="62" y="122" width="12" height="12" fill="black" />
<rect shape-rendering="optimizeSpeed"  x="74" y="122" width="12" height="12" fill="black" />
<rect shape-rendering="optimizeSpeed"  x="98" y="122" width="12" height="12" fill="black" />
<rect shape-rendering="optimizeSpeed"  x="110" y="122" width="12" height="12" fill="black" />
<rect shape-rendering="optimizeSpeed"  x="122" y="122" width="12" height="12" fill="black" />
<rect shape-rendering="optimizeSpeed"  x="134" y="122" width="12" height="12" fill="black" />
<rect shape-rendering="optimizeSpeed"  x="158" y="122" width="12" height="12" fill="black" />
<rect shape-rendering="optimizeSpeed"  x="182" y="122" width="12" height="12" fill="black" />
<rect shape-rendering="optimizeSpeed"  x="194" y="122" width="12" height="12" fill="black" />
<rect shape-rendering="optimizeSpeed"  x="206" y="122" width="12" height="12" fill="black" />
<rect shape-rendering="optimizeSpeed"  x="218" y="122" width="12" height="12" fill="black" />
<rect shape-rendering="optimizeSpeed"  x="230" y="122" width="12" height="12" fill="black" />
<rect shape-rendering="optimizeSpeed"  x="254" y="122" width="12" height="12" fill="black" />
<rect shape-rendering="optimizeSpeed"  x="278" y="122" width="12" height="12" fill="black" />
<rect shape-rendering="optimizeSpeed"  x="302" y="122" width="12" height="12" fill="black" />
<rect shape-rendering="optimizeSpeed"  x="326" y="122" width="12" height="12" fill="black" />
<rect shape-rendering="optimizeSpeed"  x="350" y="122" width="12" height="12" fill="black" />
<rect shape-rendering="optimizeSpeed"  x="74" y="134" width="12" height="12" fill="black" />
<rect shape-rendering="optimizeSpeed"  x="86" y="134" width="12" height="12" fill="black" />
<rect shape-rendering="optimizeSpeed"  x="146" y="134" width="12" height="12" fill="black" />
<rect shape-rendering="optimizeSpeed"  x="170" y="134" width="12" height="12" fill="black" />
<rect shape-rendering="optimizeSpeed"  x="182" y="134" width="12" height="12" fill="black" />
<rect shape-rendering="optimizeSpeed"  x="230" y="134" width="12" height="12" fill="black" />
<rect shape-rendering="optimizeSpeed"  x="242" y="134" width="12" height="12" fill="black" />
<rect shape-rendering="optimizeSpeed"  x="254" y="134" width="12" height="12" fill="black" />
<rect shape-rendering="optimizeSpeed"  x="266" y="134" width="12" height="12" fill="black" />
<rect shape-rendering="optimizeSpeed"  x="278" y="134" width="12" height="12" fill="black" />
<rect shape-rendering="optimizeSpeed"  x="290" y="134" width="12" height="12" fill="black" />
<rect shape-rendering="optimizeSpeed"  x="302" y="134" width="12" height="12" fill="black" />
<rect shape-rendering="optimizeSpeed"  x="314" y="134" width="12" height="12" fill="black" />
<rect shape-rendering="optimizeSpeed"  x="362" y="134" width="12" height="12" fill="black" />
<rect shape-rendering="optimizeSpeed"  x="50" y="146" width="12" height="12" fill="black" />
<rect shape-rendering="optimizeSpeed"  x="62" y="146" width="12" height="12" fill="black" />
<rect shape-rendering="optimizeSpeed"  x="98" y="146" width="12" height="12" fill="black" />
<rect shape-rendering="optimizeSpeed"  x="110" y="146" width="12" height="12" fill="black" />
<rect shape-rendering="optimizeSpeed"  x="122" y="146" width="12" height="12" fill="black" />
<rect shape-rendering="optimizeSpeed"  x="146" y="146" width="12" height="12" fill="black" />
<rect shape-rendering="optimizeSpeed"  x="194" y="146" width="12" height="12" fill="black" />
<rect shape-rendering="optimizeSpeed"  x="206" y="146" width="12" height="12" fill="black" />
<rect shape-rendering="optimizeSpeed"  x="242" y="146" width="12" height="12" fill="black" />
<rect shape-rendering="optimizeSpeed"  x="290" y="146" width="12" height="12" fill="black" />
<rect shape-rendering="optimizeSpeed"  x="26" y="158" width="12" height="12" fill="black" />
<rect shape-rendering="optimizeSpeed"  x="38" y="158" width="12" height="12" fill="black" />
<rect shape-rendering="optimizeSpeed"  x="50" y="158" width="12" height="12" fill="black" />
<rect shape-rendering="optimizeSpeed"  x="62" y="158" width="12" height="12" fill="black" />
<rect shape-rendering="optimizeSpeed"  x="86" y="158" width="12" height="12" fill="black" />
<rect shape-rendering="optimizeSpeed"  x="110" y="158" width="12" height="12" fill="black" />
<rect shape-rendering="optimizeSpeed"  x="170" y="158" width="12" height="12" fill="black" />
<rect shape-rendering="optimizeSpeed"  x="194" y="158" width="12" height="12" fill="black" />
<rect shape-rendering="optimizeSpeed"  x="266" y="158" width="12" height="12" fill="black" />
<rect shape-rendering="optimizeSpeed"  x="278" y="158" width="12" height="12" fill="black" />
<rect shape-rendering="optimizeSpeed"  x="290" y="158" width="12" height="12" fill="black" />
<rect shape-rendering="optimizeSpeed"  x="302" y="158" width="12" height="12" fill="black" />
<rect shape-rendering="optimizeSpeed"  x="326" y="158" width="12" height="12" fill="black" />
<rect shape-rendering="optimizeSpeed"  x="350" y="158" width="12" height="12" fill="black" />
<rect shape-rendering="optimizeSpeed"  x="26" y="170" width="12" height="12" fill="black" />
<rect shape-rendering="optimizeSpeed"  x="38" y="170" width="12" height="12" fill="black" />
<rect shape-rendering="optimizeSpeed"  x="86" y="170" width="12" height="12" fill="black" />
<rect shape-rendering="optimizeSpeed"  x="98" y="170" width="12" height="12" fill="black" />
<rect shape-rendering="optimizeSpeed"  x="134" y="170" width="12" height="12" fill="black" />
<rect shape-rendering="optimizeSpeed"  x="146" y="170" width="12" height="12" fill="black" />
<rect shape-rendering="optimizeSpeed"  x="170" y="170" width="12" height="12" fill="black" />
<rect shape-rendering="optimizeSpeed"  x="182" y="170" width="12" height="12" fill="black" />
<rect shape-rendering="optimizeSpeed"  x="194" y="170" width="12" height="12" fill="black" />
<rect shape-rendering="optimizeSpeed"  x="206" y="170" width="12" height="12" fill="black" />
<rect shape-rendering="optimizeSpeed"  x="218" y="170" width="12" height="12" fill="black" />
<rect shape-rendering="optimizeSpeed"  x="230" y="170" width="12" height="12" fill="black" />
<rect shape-rendering="optimizeSpeed"  x="266" y="170" width="12" height="12" fill="black" />
<rect shape-rendering="optimizeSpeed"  x="326" y="170" width="12" height="12" fill="black" />
<rect shape-rendering="optimizeSpeed"  x="338" y="170" width="12" height="12" fill="black" />
<rect shape-rendering="optimizeSpeed"  x="26" y="182" width="12" height="12" fill="black" />
<rect shape-rendering="optimizeSpeed"  x="38" y="182" width="12" height="12" fill="black" />
<rect shape-rendering="optimizeSpeed"  x="50" y="182" width="12" height="12" fill="black" />
<rect shape-rendering="optimizeSpeed"  x="74" y="182" width="12" height="12" fill="black" />
<rect shape-rendering="optimizeSpeed"  x="182" y="182" width="12" height="12" fill="black" />
<rect shape-rendering="optimizeSpeed"  x="230" y="182" width="12" height="12" fill="black" />
<rect shape-rendering="optimizeSpeed"  x="242" y="182" width="12" height="12" fill="black" />
<rect shape-rendering="optimizeSpeed"  x="254" y="182" width="12" height="12" fill="black" />
<rect shape-rendering="optimizeSpeed"  x="266" y="182" width="12" height="12" fill="black" />
<rect shape-rendering="optimizeSpeed"  x="278" y="182" width="12" height="12" fill="black" />
<rect shape-rendering="optimizeSpeed"  x="290" y="182" width="12" height="12" fill="black" />
<rect shape-rendering="optimizeSpeed"  x="302" y="182" width="12" height="12" fill="black" />
<rect shape-rendering="optimizeSpeed"  x="314" y="182" width="12" height="12" fill="black" />
<rect shape-rendering="optimizeSpeed"  x="362" y="182" width="12" height="12" fill="black" />
<rect shape-rendering="optimizeSpeed"  x="26" y="194" width="12" height="12" fill="black" />
<rect shape-rendering="optimizeSpeed"  x="98" y="194" width="12" height="12" fill="black" />
<rect shape-rendering="optimizeSpeed"  x="110" y="194" width="12" height="12" fill="black" />
<rect shape-rendering="optimizeSpeed"  x="134" y="194" width="12" height="12" fill="black" />
<rect shape-rendering="optimizeSpeed"  x="158" y="194" width="12" height="12" fill="black" />
<rect shape-rendering="optimizeSpeed"  x="170" y="194" width="12" height="12" fill="black" />
<rect shape-rendering="optimizeSpeed"  x="194" y="194" width="12" height="12" fill="black" />
<rect shape-rendering="optimizeSpeed"  x="206" y="194" width="12" height="12" fill="black" />
<rect shape-rendering="optimizeSpeed"  x="230" y="194" width="12" height="12" fill="black" />
<rect shape-rendering="optimizeSpeed"  x="266" y="194" width="12" height="12" fill="black" />
<rect shape-rendering="optimizeSpeed"  x="278" y="194" width="12" height="12" fill="black" />
<rect shape-rendering="optimizeSpeed"  x="290" y="194" width="12" height="12" fill="black" />
<rect shape-rendering="optimizeSpeed"  x="302" y="194" width="12" height="12" fill="black" />
<rect shape-rendering="optimizeSpeed"  x="314" y="194" width="12" height="12" fill="black" />
<rect shape-rendering="optimizeSpeed"  x="326" y="194" width="12" height="12" fill="black" />
<rect shape-rendering="optimizeSpeed"  x="338" y="194" width="12" height="12" fill="black" />
<rect shape-rendering="optimizeSpeed"  x="38" y="206" width="12" height="12" fill="black" />
<rect shape-rendering="optimizeSpeed"  x="50" y="206" width="12" height="12" fill="black" />
<rect shape-rendering="optimizeSpeed"  x="74" y="206" width="12" height="12" fill="black" />
<rect shape-rendering="optimizeSpeed"  x="86" y="206" width="12" height="12" fill="black" />
<rect shape-rendering="optimizeSpeed"  x="122" y="206" width="12" height="12" fill="black" />
<rect shape-rendering="optimizeSpeed"  x="134" y="206" width="12" height="12" fill="black" />
<rect shape-rendering="optimizeSpeed"  x="158" y="206" width="12" height="12" fill="black" />
<rect shape-rendering="optimizeSpeed"  x="206" y="206" width="12" height="12" fill="black" />
<rect shape-rendering="optimizeSpeed"  x="314" y="206" width="12" height="12" fill="black" />
<rect shape-rendering="optimizeSpeed"  x="350" y="206" width="12" height="12" fill="black" />
<rect shape-rendering="optimizeSpeed"  x="50" y="218" width="12" height="12" fill="black" />
<rect shape-rendering="optimizeSpeed"  x="62" y="218" width="12" height="12" fill="black" />
<rect shape-rendering="optimizeSpeed"  x="98" y="218" width="12" height="12" fill="black" />
<rect shape-rendering="optimizeSpeed"  x="146" y="218" width="12" height="12" fill="black" />
<rect shape-rendering="optimizeSpeed"  x="158" y="218" width="12" height="12" fill="black" />
<rect shape-rendering="optimizeSpeed"  x="206" y="218" width="12" height="12" fill="black" />
<rect shape-rendering="optimizeSpeed"  x="218" y="218" width="12" height="12" fill="black" />
<rect shape-rendering="optimizeSpeed"  x="230" y="218" width="12" height="12" fill="black" />
<rect shape-rendering="optimizeSpeed"  x="242" y="218" width="12" height="12" fill="black" />
<rect shape-rendering="optimizeSpeed"  x="254" y="218" width="12" height="12" fill="black" />
<rect shape-rendering="optimizeSpeed"  x="326" y="218" width="12" height="12" fill="black" />
<rect shape-rendering="optimizeSpeed"  x="338" y="218" width="12" height="12" fill="black" />
<rect shape-rendering="optimizeSpeed"  x="26" y="230" width="12" height="12" fill="black" />
<rect shape-rendering="optimizeSpeed"  x="38" y="230" width="12" height="12" fill="black" />
<rect shape-rendering="optimizeSpeed"  x="74" y="230" width="12" height="12" fill="black" />
<rect shape-rendering="optimizeSpeed"  x="86" y="230" width="12" height="12" fill="black" />
<rect shape-rendering="optimizeSpeed"  x="110" y="230" width="12" height="12" fill="black" />
<rect shape-rendering="optimizeSpeed"  x="146" y="230" width="12" height="12" fill="black" />
<rect shape-rendering="optimizeSpeed"  x="170" y="230" width="12" height="12" fill="black" />
<rect shape-rendering="optimizeSpeed"  x="182" y="230" width="12" height="12" fill="black" />
<rect shape-rendering="optimizeSpeed"  x="230" y="230" width="12" height="12" fill="black" />
<rect shape-rendering="optimizeSpeed"  x="242" y="230" width="12" height="12" fill="black" />
<rect shape-rendering="optimizeSpeed"  x="254" y="230" width="12" height="12" fill="black" />
<rect shape-rendering="optimizeSpeed"  x="266" y="230" width="12" height="12" fill="black" />
<rect shape-rendering="optimizeSpeed"  x="290" y="230" width="12" height="12" fill="black" />
<rect shape-rendering="optimizeSpeed"  x="302" y="230" width="12" height="12" fill="black" />
<rect shape-rendering="optimizeSpeed"  x="314" y="230" width="12" height="12" fill="black" />
<rect shape-rendering="optimizeSpeed"  x="338" y="230" width="12" height="12" fill="black" />
<rect shape-rendering="optimizeSpeed"  x="362" y="230" width="12" height="12" fill="black" />
<rect shape-rendering="optimizeSpeed"  x="26" y="242" width="12" height="12" fill="black" />
<rect shape-rendering="optimizeSpeed"  x="74" y="242" width="12" height="12" fill="black" />
<rect shape-rendering="optimizeSpeed"  x="98" y="242" width="12" height="12" fill="black" />
<rect shape-rendering="optimizeSpeed"  x="146" y="242" width="12" height="12" fill="black" />
<rect shape-rendering="optimizeSpeed"  x="182" y="242" width="12" height="12" fill="black" />
<rect shape-rendering="optimizeSpeed"  x="194" y="242" width="12" height="12" fill="black" />
<rect shape-rendering="optimizeSpeed"  x="206" y="242" width="12" height="12" fill="black" />
<rect shape-rendering="optimizeSpeed"  x="230" y="242" width="12" height="12" fill="black" />
<rect shape-rendering="optimizeSpeed"  x="266" y="242" width="12" height="12" fill="black" />
<rect shape-rendering="optimizeSpeed"  x="302" y="242" width="12" height="12" fill="black" />
<rect shape-rendering="optimizeSpeed"  x="314" y="242" width="12" height="12" fill="black" />
<rect shape-rendering="optimizeSpeed"  x="338" y="242" width="12" height="12" fill="black" />
<rect shape-rendering="optimizeSpeed"  x="26" y="254" width="12" height="12" fill="black" />
<rect shape-rendering="optimizeSpeed"  x="50" y="254" width="12" height="12" fill="black" />
<rect shape-rendering="optimizeSpeed"  x="62" y="254" width="12" height="12" fill="black" />
<rect shape-rendering="optimizeSpeed"  x="86" y="254" width="12" height="12" fill="black" />
<rect shape-rendering="optimizeSpeed"  x="122" y="254" width="12" height="12" fill="black" />
<rect shape-rendering="optimizeSpeed"  x="146" y="254" width="12" height="12" fill="black" />
<rect shape-rendering="optimizeSpeed"  x="170" y="254" width="12" height="12" fill="black" />
<rect shape-rendering="optimizeSpeed"  x="182" y="254" width="12" height="12" fill="black" />
<rect shape-rendering="optimizeSpeed"  x="254" y="254" width="12" height="12" fill="black" />
<rect shape-rendering="optimizeSpeed"  x="266" y="254" width="12" height="12" fill="black" />
<rect shape-rendering="optimizeSpeed"  x="278" y="254" width="12" height="12" fill="black" />
<rect shape-rendering="optimizeSpeed"  x="350" y="254" width="12" height="12" fill="black" />
<rect shape-rendering="optimizeSpeed"  x="26" y="266" width="12" height="12" fill="black" />
<rect shape-rendering="optimizeSpeed"  x="86" y="266" width="12" height="12" fill="black" />
<rect shape-rendering="optimizeSpeed"  x="98" y="266" width="12" height="12" fill="black" />
<rect shape-rendering="optimizeSpeed"  x="110" y="266" width="12" height="12" fill="black" />
<rect shape-rendering="optimizeSpeed"  x="146" y="266" width="12" height="12" fill="black" />
<rect shape-rendering="optimizeSpeed"  x="170" y="266" width="12" height="12" fill="black" />
<rect shape-rendering="optimizeSpeed"  x="194" y="266" width="12" height="12" fill="black" />
<rect shape-rendering="optimizeSpeed"  x="206" y="266" width="12" height="12" fill="black" />
<rect shape-rendering="optimizeSpeed"  x="218" y="266" width="12" height="12" fill="black" />
<rect shape-rendering="optimizeSpeed"  x="230" y="266" width="12" height="12" fill="black" />
<rect shape-rendering="optimizeSpeed"  x="266" y="266" width="12" height="12" fill="black" />
<rect shape-rendering="optimizeSpeed"  x="278" y="266" width="12" height="12" fill="black" />
<rect shape-rendering="optimizeSpeed"  x="290" y="266" width="12" height="12" fill="black" />
<rect shape-rendering="optimizeSpeed"  x="302" y="266" width="12" height="12" fill="black" />
<rect shape-rendering="optimizeSpeed"  x="314" y="266" width="12" height="12" fill="black" />
<rect shape-rendering="optimizeSpeed"  x="338" y="266" width="12" height="12" fill="black" />
<rect shape-rendering="optimizeSpeed"  x="350" y="266" width="12" height="12" fill="black" />
<rect shape-rendering="optimizeSpeed"  x="362" y="266" width="12" height="12" fill="black" />
<rect shape-rendering="optimizeSpeed"  x="122" y="278" width="12" height="12" fill="black" />
<rect shape-rendering="optimizeSpeed"  x="134" y="278" width="12" height="12" fill="black" />
<rect shape-rendering="optimizeSpeed"  x="266" y="278" width="12" height="12" fill="black" />
<rect shape-rendering="optimizeSpeed"  x="314" y="278" width="12" height="12" fill="black" />
<rect shape-rendering="optimizeSpeed"  x="326" y="278" width="12" height="12" fill="black" />
<rect shape-rendering="optimizeSpeed"  x="338" y="278" width="12" height="12" fill="black" />
<rect shape-rendering="optimizeSpeed"  x="350" y="278" width="12" height="12" fill="black" />
<rect shape-rendering="optimizeSpeed"  x="362" y="278" width="12" height="12" fill="black" />
<rect shape-rendering="optimizeSpeed"  x="26" y="290" width="12" height="12" fill="black" />
<rect shape-rendering="optimizeSpeed"  x="38" y="290" width="12" height="12" fill="black" />
<rect shape-rendering="optimizeSpeed"  x="50" y="290" width="12" height="12" fill="black" />
<rect shape-rendering="optimizeSpeed"  x="62" y="290" width="12" height="12" fill="black" />
<rect shape-rendering="optimizeSpeed"  x="74" y="290" width="12" height="12" fill="black" />
<rect shape-rendering="optimizeSpeed"  x="86" y="290" width="12" height="12" fill="black" />
<rect shape-rendering="optimizeSpeed"  x="98" y="290" width="12" height="12" fill="black" />
<rect shape-rendering="optimizeSpeed"  x="122" y="290" width="12" height="12" fill="black" />
<rect shape-rendering="optimizeSpeed"  x="134" y="290" width="12" height="12" fill="black" />
<rect shape-rendering="optimizeSpeed"  x="158" y="290" width="12" height="12" fill="black" />
<rect shape-rendering="optimizeSpeed"  x="170" y="290" width="12" height="12" fill="black" />
<rect shape-rendering="optimizeSpeed"  x="206" y="290" width="12" height="12" fill="black" />
<rect shape-rendering="optimizeSpeed"  x="218" y="290" width="12" height="12" fill="black" />
<rect shape-rendering="optimizeSpeed"  x="230" y="290" width="12" height="12" fill="black" />
<rect shape-rendering="optimizeSpeed"  x="254" y="290" width="12" height="12" fill="black" />
<rect shape-rendering="optimizeSpeed"  x="266" y="290" width="12" height="12" fill="black" />
<rect shape-rendering="optimizeSpeed"  x="290" y="290" width="12" height="12" fill="black" />
<rect shape-rendering="optimizeSpeed"  x="314" y="290" width="12" height="12" fill="black" />
<rect shape-rendering="optimizeSpeed"  x="326" y="290" width="12" height="12" fill="black" />
<rect shape-rendering="optimizeSpeed"  x="338" y="290" width="12" height="12" fill="black" />
<rect shape-rendering="optimizeSpeed"  x="26" y="302" width="12" height="12" fill="black" />
<rect shape-rendering="optimizeSpeed"  x="98" y="302" width="12" height="12" fill="black" />
<rect shape-rendering="optimizeSpeed"  x="158" y="302" width="12" height="12" fill="black" />
<rect shape-rendering="optimizeSpeed"  x="194" y="302" width="12" height="12" fill="black" />
<rect shape-rendering="optimizeSpeed"  x="206" y="302" width="12" height="12" fill="black" />
<rect shape-rendering="optimizeSpeed"  x="218" y="302" width="12" height="12" fill="black" />
<rect shape-rendering="optimizeSpeed"  x="254" y="302" width="12" height="12" fill="black" />
<rect shape-rendering="optimizeSpeed"  x="266" y="302" width="12" height="12" fill="black" />
<rect shape-rendering="optimizeSpeed"  x="314" y="302" width="12" height="12" fill="black" />
<rect shape-rendering="optimizeSpeed"  x="350" y="302" width="12" height="12" fill="black" />
<rect shape-rendering="optimizeSpeed"  x="26" y="314" width="12" height="12" fill="black" />
<rect shape-rendering="optimizeSpeed"  x="50" y="314" width="12" height="12" fill="black" />
<rect shape-rendering="optimizeSpeed"  x="62" y="314" width="12" height="12" fill="black" />
<rect shape-rendering="optimizeSpeed"  x="74" y="314" width="12" height="12" fill="black" />
<rect shape-rendering="optimizeSpeed"  x="98" y="314" width="12" height="12" fill="black" />
<rect shape-rendering="optimizeSpeed"  x="122" y="314" width="12" height="12" fill="black" />
<rect shape-rendering="optimizeSpeed"  x="146" y="314" width="12" height="12" fill="black" />
<rect shape-rendering="optimizeSpeed"  x="158" y="314" width="12" height="12" fill="black" />
<rect shape-rendering="optimizeSpeed"  x="206" y="314" width="12" height="12" fill="black" />
<rect shape-rendering="optimizeSpeed"  x="230" y="314" width="12" height="12" fill="black" />
<rect shape-rendering="optimizeSpeed"  x="266" y="314" width="12" height="12" fill="black" />
<rect shape-rendering="optimizeSpeed"  x="278" y="314" width="12" height="12" fill="black" />
<rect shape-rendering="optimizeSpeed"  x="290" y="314" width="12" height="12" fill="black" />
<rect shape-rendering="optimizeSpeed"  x="302" y="314" width="12" height="12" fill="black" />
<rect shape-rendering="optimizeSpeed"  x="314" y="314" width="12" height="12" fill="black" />
<rect shape-rendering="optimizeSpeed"  x="338" y="314" width="12" height="12" fill="black" />
<rect shape-rendering="optimizeSpeed"  x="350" y="314" width="12" height="12" fill="black" />
<rect shape-rendering="optimizeSpeed"  x="362" y="314" width="12" height="12" fill="black" />
<rect shape-rendering="optimizeSpeed"  x="26" y="326" width="12" height="12" fill="black" />
<rect shape-rendering="optimizeSpeed"  x="50" y="326" width="12" height="12" fill="black" />
<rect shape-rendering="optimizeSpeed"  x="62" y="326" width="12" height="12" fill="black" />
<rect shape-rendering="optimizeSpeed"  x="74" y="326" width="12" height="12" fill="black" />
<rect shape-rendering="optimizeSpeed"  x="98" y="326" width="12" height="12" fill="black" />
<rect shape-rendering="optimizeSpeed"  x="122" y="326" width="12" height="12" fill="black" />
<rect shape-rendering="optimizeSpeed"  x="134" y="326" width="12" height="12" fill="black" />
<rect shape-rendering="optimizeSpeed"  x="170" y="326" width="12" height="12" fill="black" />
<rect shape-rendering="optimizeSpeed"  x="182" y="326" width="12" height="12" fill="black" />
<rect shape-rendering="optimizeSpeed"  x="194" y="326" width="12" height="12" fill="black" />
<rect shape-rendering="optimizeSpeed"  x="218" y="326" width="12" height="12" fill="black" />
<rect shape-rendering="optimizeSpeed"  x="230" y="326" width="12" height="12" fill="black" />
<rect shape-rendering="optimizeSpeed"  x="242" y="326" width="12" height="12" fill="black" />
<rect shape-rendering="optimizeSpeed"  x="266" y="326" width="12" height="12" fill="black" />
<rect shape-rendering="optimizeSpeed"  x="302" y="326" width="12" height="12" fill="black" />
<rect shape-rendering="optimizeSpeed"  x="326" y="326" width="12" height="12" fill="black" />
<rect shape-rendering="optimizeSpeed"  x="338" y="326" width="12" height="12" fill="black" />
<rect shape-rendering="optimizeSpeed"  x="350" y="326" width="12" height="12" fill="black" />
<rect shape-rendering="optimizeSpeed"  x="362" y="326" width="12" height="12" fill="black" />
<rect shape-rendering="optimizeSpeed"  x="26" y="338" width="12" height="12" fill="black" />
<rect shape-rendering="optimizeSpeed"  x="50" y="338" width="12" height="12" fill="black" />
<rect shape-rendering="optimizeSpeed"  x="62" y="338" width="12" height="12" fill="black" />
<rect shape-rendering="optimizeSpeed"  x="74" y="338" width="12" height="12" fill="black" />
<rect shape-rendering="optimizeSpeed"  x="98" y="338" width="12" height="12" fill="black" />
<rect shape-rendering="optimizeSpeed"  x="122" y="338" width="12" height="12" fill="black" />
<rect shape-rendering="optimizeSpeed"  x="146" y="338" width="12" height="12" fill="black" />
<rect shape-rendering="optimizeSpeed"  x="182" y="338" width="12" height="12" fill="black" />
<rect shape-rendering="optimizeSpeed"  x="194" y="338" width="12" height="12" fill="black" />
<rect shape-rendering="optimizeSpeed"  x="206" y="338" width="12" height="12" fill="black" />
<rect shape-rendering="optimizeSpeed"  x="242" y="338" width="12" height="12" fill="black" />
<rect shape-rendering="optimizeSpeed"  x="254" y="338" width="12" height="12" fill="black" />
<rect shape-rendering="optimizeSpeed"  x="266" y="338" width="12" height="12" fill="black" />
<rect shape-rendering="optimizeSpeed"  x="290" y="338" width="12" height="12" fill="black" />
<rect shape-rendering="optimizeSpeed"  x="302" y="338" width="12" height="12" fill="black" />
<rect shape-rendering="optimizeSpeed"  x="314" y="338" width="12" height="12" fill="black" />
<rect shape-rendering="optimizeSpeed"  x="326" y="338" width="12" height="12" fill="black" />
<rect shape-rendering="optimizeSpeed"  x="338" y="338" width="12" height="12" fill="black" />
<rect shape-rendering="optimizeSpeed"  x="350" y="338" width="12" height="12" fill="black" />
<rect shape-rendering="optimizeSpeed"  x="26" y="350" width="12" height="12" fill="black" />
<rect shape-rendering="optimizeSpeed"  x="98" y="350" width="12" height="12" fill="black" />
<rect shape-rendering="optimizeSpeed"  x="122" y="350" width="12" height="12" fill="black" />
<rect shape-rendering="optimizeSpeed"  x="134" y="350" width="12" height="12" fill="black" />
<rect shape-rendering="optimizeSpeed"  x="146" y="350" width="12" height="12" fill="black" />
<rect shape-rendering="optimizeSpeed"  x="170" y="350" width="12" height="12" fill="black" />
<rect shape-rendering="optimizeSpeed"  x="182" y="350" width="12" height="12" fill="black" />
<rect shape-rendering="optimizeSpeed"  x="218" y="350" width="12" height="12" fill="black" />
<rect shape-rendering="optimizeSpeed"  x="266" y="350" width="12" height="12" fill="black" />
<rect shape-rendering="optimizeSpeed"  x="278" y="350" width="12" height="12" fill="black" />
<rect shape-rendering="optimizeSpeed"  x="290" y="350" width="12" height="12" fill="black" />
<rect shape-rendering="optimizeSpeed"  x="326" y="350" width="12" height="12" fill="black" />
<rect shape-rendering="optimizeSpeed"  x="350" y="350" width="12" height="12" fill="black" />
<rect shape-rendering="optimizeSpeed"  x="26" y="362" width="12" height="12" fill="black" />
<rect shape-rendering="optimizeSpeed"  x="38" y="362" width="12" height="12" fill="black" />
<rect shape-rendering="optimizeSpeed"  x="50" y="362" width="12" height="12" fill="black" />
<rect shape-rendering="optimizeSpeed"  x="62" y="362" width="12" height="12" fill="black" />
<rect shape-rendering="optimizeSpeed"  x="74" y="362" width="12" height="12" fill="black" />
<rect shape-rendering="optimizeSpeed"  x="86" y="362" width="12" height="12" fill="black" />
<rect shape-rendering="optimizeSpeed"  x="98" y="362" width="12" height="12" fill="black" />
<rect shape-rendering="optimizeSpeed"  x="122" y="362" width="12" height="12" fill="black" />
<rect shape-rendering="optimizeSpeed"  x="146" y="362" width="12" height="12" fill="black" />
<rect shape-rendering="optimizeSpeed"  x="170" y="362" width="12" height="12" fill="black" />
<rect shape-rendering="optimizeSpeed"  x="194" y="362" width="12" height="12" fill="black" />
<rect shape-rendering="optimizeSpeed"  x="230" y="362" width="12" height="12" fill="black" />
<rect shape-rendering="optimizeSpeed"  x="278" y="362" width="12" height="12" fill="black" />
<rect shape-rendering="optimizeSpeed"  x="290" y="362" width="12" height="12" fill="black" />
<rect shape-rendering="optimizeSpeed"  x="314" y="362" width="12" height="12" fill="black" />
<rect shape-rendering="optimizeSpeed"  x="326" y="362" width="12" height="12" fill="black" />
<rect shape-rendering="optimizeSpeed"  x="338" y="362" width="12" height="12" fill="black" /></svg>