<?xml version="1.0" encoding="UTF-8"?>
<svg version="1.1" baseProfile="tiny" xmlns="http://www.w3.org/2000/svg" width="377" height="377">
<rect shape-rendering="optimizeSpeed"  x="0" y="0" width="377" height="377" fill="white" />
<rect shape-rendering="optimizeSpeed"  x="0" y="0" width="13" height="13" fill="black" />
<rect shape-rendering="optimizeSpeed"  x="13" y="0" width="13" height="13" fill="black" />
<rect shape-rendering="optimizeSpeed"  x="26" y="0" width="13" height="13" fill="black" />
<rect shape-rendering="optimizeSpeed"  x="39" y="0" width="13" height="13" fill="black" />
<rect shape-rendering="optimizeSpeed"  x="52" y="0" width="13" height="13" fill="black" />
<rect shape-rendering="optimizeSpeed"  x="65" y="0" width="13" height="13" fill="black" />
<rect shape-rendering="optimizeSpeed"  x="78" y="0" width="13" height="13" fill="black" />
<rect shape-rendering="optimizeSpeed"  x="130" y="0" width="13" height="13" fill="black" />
<rect shape-rendering="optimizeSpeed"  x="156" y="0" width="13" height="13" fill="black" />
<rect shape-rendering="optimizeSpeed"  x="169" y="0" width="13" height="13" fill="black" />
<rect shape-rendering="optimizeSpeed"  x="208" y="0" width="13" height="13" fill="black" />
<rect shape-rendering="optimizeSpeed"  x="234" y="0" width="13" height="13" fill="black" />
<rect shape-rendering="optimizeSpeed"  x="247" y="0" width="13" height="13" fill="black" />
<rect shape-rendering="optimizeSpeed"  x="260" y="0" width="13" height="13" fill="black" />
<rect shape-rendering="optimizeSpeed"  x="286" y="0" width="13" height="13" fill="black" />
<rect shape-rendering="optimizeSpeed"  x="299" y="0" width="13" height="13" fill="black" />
<rect shape-rendering="optimizeSpeed"  x="312" y="0" width="13" height="13" fill="black" />
<rect shape-rendering="optimizeSpeed"  x="325" y="0" width="13" height="13" fill="black" />
<rect shape-rendering="optimizeSpeed"  x="338" y="0" width="13" height="13" fill="black" />
<rect shape-rendering="optimizeSpeed"  x="351" y="0" width="13" height="13" fill="black" />
<rect shape-rendering="optimizeSpeed"  x="364" y="0" width="13" height="13" fill="black" />
<rect shape-rendering="optimizeSpeed"  x="0" y="13" width="13" height="13" fill="black" />
<rect shape-rendering="optimizeSpeed"  x="78" y="13" width="13" height="13" fill="black" />
<rect shape-rendering="optimizeSpeed"  x="104" y="13" width="13" height="13" fill="black" />
<rect shape-rendering="optimizeSpeed"  x="130" y="13" width="13" height="13" fill="black" />
<rect shape-rendering="optimizeSpeed"  x="195" y="13" width="13" height="13" fill="black" />
<rect shape-rendering="optimizeSpeed"  x="221" y="13" width="13" height="13" fill="black" />
<rect shape-rendering="optimizeSpeed"  x="234" y="13" width="13" height="13" fill="black" />
<rect shape-rendering="optimizeSpeed"  x="260" y="13" width="13" height="13" fill="black" />
<rect shape-rendering="optimizeSpeed"  x="286" y="13" width="13" height="13" fill="black" />
<rect shape-rendering="optimizeSpeed"  x="364" y="13" width="13" height="13" fill="black" />
<rect shape-rendering="optimizeSpeed"  x="0" y="26" width="13" height="13" fill="black" />
<rect shape-rendering="optimizeSpeed"  x="26" y="26" width="13" height="13" fill="black" />
<rect shape-rendering="optimizeSpeed"  x="39" y="26" width="13" height="13" fill="black" />
<rect shape-rendering="optimizeSpeed"  x="52" y="26" width="13" height="13" fill="black" />
<rect shape-rendering="optimizeSpeed"  x="78" y="26" width="13" height="13" fill="black" />
<rect shape-rendering="optimizeSpeed"  x="156" y="26" width="13" height="13" fill="black" />
<rect shape-rendering="optimizeSpeed"  x="208" y="26" width="13" height="13" fill="black" />
<rect shape-rendering="optimizeSpeed"  x="234" y="26" width="13" height="13" fill="black" />
<rect shape-rendering="optimizeSpeed"  x="260" y="26" width="13" height="13" fill="black" />
<rect shape-rendering="optimizeSpeed"  x="286" y="26" width="13" height="13" fill="black" />
<rect shape-rendering="optimizeSpeed"  x="312" y="26" width="13" height="13" fill="black" />
<rect shape-rendering="optimizeSpeed"  x="325" y="26" width="13" height="13" fill="black" />
<rect shape-rendering="optimizeSpeed"  x="338" y="26" width="13" height="13" fill="black" />
<rect shape-rendering="optimizeSpeed"  x="364" y="26" width="13" height="13" fill="black" />
<rect shape-rendering="optimizeSpeed"  x="0" y="39" width="13" height="13" fill="black" />
<rect shape-rendering="optimizeSpeed"  x="26" y="39" width="13" height="13" fill="black" />
<rect shape-rendering="optimizeSpeed"  x="39" y="39" width="13" height="13" fill="black" />
<rect shape-rendering="optimizeSpeed"  x="52" y="39" width="13" height="13" fill="black" />
<rect shape-rendering="optimizeSpeed"  x="78" y="39" width="13" height="13" fill="black" />
<rect shape-rendering="optimizeSpeed"  x="104" y="39" width="13" height="13" fill="black" />
<rect shape-rendering="optimizeSpeed"  x="117" y="39" width="13" height="13" fill="black" />
<rect shape-rendering="optimizeSpeed"  x="130" y="39" width="13" height="13" fill="black" />
<rect shape-rendering="optimizeSpeed"  x="156" y="39" width="13" height="13" fill="black" />
<rect shape-rendering="optimizeSpeed"  x="169" y="39" width="13" height="13" fill="black" />
<rect shape-rendering="optimizeSpeed"  x="182" y="39" width="13" height="13" fill="black" />
<rect shape-rendering="optimizeSpeed"  x="221" y="39" width="13" height="13" fill="black" />
<rect shape-rendering="optimizeSpeed"  x="234" y="39" width="13" height="13" fill="black" />
<rect shape-rendering="optimizeSpeed"  x="260" y="39" width="13" height="13" fill="black" />
<rect shape-rendering="optimizeSpeed"  x="286" y="39" width="13" height="13" fill="black" />
<rect shape-rendering="optimizeSpeed"  x="312" y="39" width="13" height="13" fill="black" />
<rect shape-rendering="optimizeSpeed"  x="325" y="39" width="13" height="13" fill="black" />
<rect shape-rendering="optimizeSpeed"  x="338" y="39" width="13" height="13" fill="black" />
<rect shape-rendering="optimizeSpeed"  x="364" y="39" width="13" height="13" fill="black" />
<rect shape-rendering="optimizeSpeed"  x="0" y="52" width="13" height="13" fill="black" />
<rect shape-rendering="optimizeSpeed"  x="26" y="52" width="13" height="13" fill="black" />
<rect shape-rendering="optimizeSpeed"  x="39" y="52" width="13" height="13" fill="black" />
<rect shape-rendering="optimizeSpeed"  x="52" y="52" width="13" height="13" fill="black" />
<rect shape-rendering="optimizeSpeed"  x="78" y="52" width="13" height="13" fill="black" />
<rect shape-rendering="optimizeSpeed"  x="117" y="52" width="13" height="13" fill="black" />
<rect shape-rendering="optimizeSpeed"  x="182" y="52" width="13" height="13" fill="black" />
<rect shape-rendering="optimizeSpeed"  x="221" y="52" width="13" height="13" fill="black" />
<rect shape-rendering="optimizeSpeed"  x="234" y="52" width="13" height="13" fill="black" />
<rect shape-rendering="optimizeSpeed"  x="247" y="52" width="13" height="13" fill="black" />
<rect shape-rendering="optimizeSpeed"  x="260" y="52" width="13" height="13" fill="black" />
<rect shape-rendering="optimizeSpeed"  x="286" y="52" width="13" height="13" fill="black" />
<rect shape-rendering="optimizeSpeed"  x="312" y="52" width="13" height="13" fill="black" />
<rect shape-rendering="optimizeSpeed"  x="325" y="52" width="13" height="13" fill="black" />
<rect shape-rendering="optimizeSpeed"  x="338" y="52" width="13" height="13" fill="black" />
<rect shape-rendering="optimizeSpeed"  x="364" y="52" width="13" height="13" fill="black" />
<rect shape-rendering="optimizeSpeed"  x="0" y="65" width="13" height="13" fill="black" />
<rect shape-rendering="optimizeSpeed"  x="78" y="65" width="13" height="13" fill="black" />
<rect shape-rendering="optimizeSpeed"  x="104" y="65" width="13" height="13" fill="black" />
<rect shape-rendering="optimizeSpeed"  x="117" y="65" width="13" height="13" fill="black" />
<rect shape-rendering="optimizeSpeed"  x="143" y="65" width="13" height="13" fill="black" />
<rect shape-rendering="optimizeSpeed"  x="156" y="65" width="13" height="13" fill="black" />
<rect shape-rendering="optimizeSpeed"  x="182" y="65" width="13" height="13" fill="black" />
<rect shape-rendering="optimizeSpeed"  x="195" y="65" width="13" height="13" fill="black" />
<rect shape-rendering="optimizeSpeed"  x="221" y="65" width="13" height="13" fill="black" />
<rect shape-rendering="optimizeSpeed"  x="286" y="65" width="13" height="13" fill="black" />
<rect shape-rendering="optimizeSpeed"  x="364" y="65" width="13" height="13" fill="black" />
<rect shape-rendering="optimizeSpeed"  x="0" y="78" width="13" height="13" fill="black" />
<rect shape-rendering="optimizeSpeed"  x="13" y="78" width="13" height="13" fill="black" />
<rect shape-rendering="optimizeSpeed"  x="26" y="78" width="13" height="13" fill="black" />
<rect shape-rendering="optimizeSpeed"  x="39" y="78" width="13" height="13" fill="black" />
<rect shape-rendering="optimizeSpeed"  x="52" y="78" width="13" height="13" fill="black" />
<rect shape-rendering="optimizeSpeed"  x="65" y="78" width="13" height="13" fill="black" />
<rect shape-rendering="optimizeSpeed"  x="78" y="78" width="13" height="13" fill="black" />
<rect shape-rendering="optimizeSpeed"  x="104" y="78" width="13" height="13" fill="black" />
<rect shape-rendering="optimizeSpeed"  x="130" y="78" width="13" height="13" fill="black" />
<rect shape-rendering="optimizeSpeed"  x="156" y="78" width="13" height="13" fill="black" />
<rect shape-rendering="optimizeSpeed"  x="182" y="78" width="13" height="13" fill="black" />
<rect shape-rendering="optimizeSpeed"  x="208" y="78" width="13" height="13" fill="black" />
<rect shape-rendering="optimizeSpeed"  x="234" y="78" width="13" height="13" fill="black" />
<rect shape-rendering="optimizeSpeed"  x="260" y="78" width="13" height="13" fill="black" />
<rect shape-rendering="optimizeSpeed"  x="286" y="78" width="13" height="13" fill="black" />
<rect shape-rendering="optimizeSpeed"  x="299" y="78" width="13" height="13" fill="black" />
<rect shape-rendering="optimizeSpeed"  x="312" y="78" width="13" height="13" fill="black" />
<rect shape-rendering="optimizeSpeed"  x="325" y="78" width="13" height="13" fill="black" />
<rect shape-rendering="optimizeSpeed"  x="338" y="78" width="13" height="13" fill="black" />
<rect shape-rendering="optimizeSpeed"  x="351" y="78" width="13" height="13" fill="black" />
<rect shape-rendering="optimizeSpeed"  x="364" y="78" width="13" height="13" fill="black" />
<rect shape-rendering="optimizeSpeed"  x="117" y="91" width="13" height="13" fill="black" />
<rect shape-rendering="optimizeSpeed"  x="130" y="91" width="13" height="13" fill="black" />
<rect shape-rendering="optimizeSpeed"  x="143" y="91" width="13" height="13" fill="black" />
<rect shape-rendering="optimizeSpeed"  x="195" y="91" width="13" height="13" fill="black" />
<rect shape-rendering="optimizeSpeed"  x="234" y="91" width="13" height="13" fill="black" />
<rect shape-rendering="optimizeSpeed"  x="0" y="104" width="13" height="13" fill="black" />
<rect shape-rendering="optimizeSpeed"  x="13" y="104" width="13" height="13" fill="black" />
<rect shape-rendering="optimizeSpeed"  x="26" y="104" width="13" height="13" fill="black" />
<rect shape-rendering="optimizeSpeed"  x="39" y="104" width="13" height="13" fill="black" />
<rect shape-rendering="optimizeSpeed"  x="52" y="104" width="13" height="13" fill="black" />
<rect shape-rendering="optimizeSpeed"  x="78" y="104" width="13" height="13" fill="black" />
<rect shape-rendering="optimizeSpeed"  x="91" y="104" width="13" height="13" fill="black" />
<rect shape-rendering="optimizeSpeed"  x="104" y="104" width="13" height="13" fill="black" />
<rect shape-rendering="optimizeSpeed"  x="117" y="104" width="13" height="13" fill="black" />
<rect shape-rendering="optimizeSpeed"  x="143" y="104" width="13" height="13" fill="black" />
<rect shape-rendering="optimizeSpeed"  x="169" y="104" width="13" height="13" fill="black" />
<rect shape-rendering="optimizeSpeed"  x="182" y="104" width="13" height="13" fill="black" />
<rect shape-rendering="optimizeSpeed"  x="195" y="104" width="13" height="13" fill="black" />
<rect shape-rendering="optimizeSpeed"  x="208" y="104" width="13" height="13" fill="black" />
<rect shape-rendering="optimizeSpeed"  x="221" y="104" width="13" height="13" fill="black" />
<rect shape-rendering="optimizeSpeed"  x="247" y="104" width="13" height="13" fill="black" />
<rect shape-rendering="optimizeSpeed"  x="273" y="104" width="13" height="13" fill="black" />
<rect shape-rendering="optimizeSpeed"  x="299" y="104" width="13" height="13" fill="black" />
<rect shape-rendering="optimizeSpeed"  x="325" y="104" width="13" height="13" fill="black" />
<rect shape-rendering="optimizeSpeed"  x="351" y="104" width="13" height="13" fill="black" />
<rect shape-rendering="optimizeSpeed"  x="52" y="117" width="13" height="13" fill="black" />
<rect shape-rendering="optimizeSpeed"  x="65" y="117" width="13" height="13" fill="black" />
<rect shape-rendering="optimizeSpeed"  x="130" y="117" width="13" height="13" fill="black" />
<rect shape-rendering="optimizeSpeed"  x="156" y="117" width="13" height="13" fill="black" />
<rect shape-rendering="optimizeSpeed"  x="169" y="117" width="13" height="13" fill="black" />
<rect shape-rendering="optimizeSpeed"  x="221" y="117" width="13" height="13" fill="black" />
<rect shape-rendering="optimizeSpeed"  x="234" y="117" width="13" height="13" fill="black" />
<rect shape-rendering="optimizeSpeed"  x="247" y="117" width="13" height="13" fill="black" />
<rect shape-rendering="optimizeSpeed"  x="260" y="117" width="13" height="13" fill="black" />
<rect shape-rendering="optimizeSpeed"  x="273" y="117" width="13" height="13" fill="black" />
<rect shape-rendering="optimizeSpeed"  x="286" y="117" width="13" height="13" fill="black" />
<rect shape-rendering="optimizeSpeed"  x="299" y="117" width="13" height="13" fill="black" />
<rect shape-rendering="optimizeSpeed"  x="312" y="117" width="13" height="13" fill="black" />
<rect shape-rendering="optimizeSpeed"  x="364" y="117" width="13" height="13" fill="black" />
<rect shape-rendering="optimizeSpeed"  x="26" y="130" width="13" height="13" fill="black" />
<rect shape-rendering="optimizeSpeed"  x="39" y="130" width="13" height="13" fill="black" />
<rect shape-rendering="optimizeSpeed"  x="78" y="130" width="13" height="13" fill="black" />
<rect shape-rendering="optimizeSpeed"  x="91" y="130" width="13" height="13" fill="black" />
<rect shape-rendering="optimizeSpeed"  x="104" y="130" width="13" height="13" fill="black" />
<rect shape-rendering="optimizeSpeed"  x="130" y="130" width="13" height="13" fill="black" />
<rect shape-rendering="optimizeSpeed"  x="182" y="130" width="13" height="13" fill="black" />
<rect shape-rendering="optimizeSpeed"  x="195" y="130" width="13" height="13" fill="black" />
<rect shape-rendering="optimizeSpeed"  x="234" y="130" width="13" height="13" fill="black" />
<rect shape-rendering="optimizeSpeed"  x="286" y="130" width="13" height="13" fill="black" />
<rect shape-rendering="optimizeSpeed"  x="0" y="143" width="13" height="13" fill="black" />
<rect shape-rendering="optimizeSpeed"  x="13" y="143" width="13" height="13" fill="black" />
<rect shape-rendering="optimizeSpeed"  x="26" y="143" width="13" height="13" fill="black" />
<rect shape-rendering="optimizeSpeed"  x="39" y="143" width="13" height="13" fill="black" />
<rect shape-rendering="optimizeSpeed"  x="65" y="143" width="13" height="13" fill="black" />
<rect shape-rendering="optimizeSpeed"  x="91" y="143" width="13" height="13" fill="black" />
<rect shape-rendering="optimizeSpeed"  x="156" y="143" width="13" height="13" fill="black" />
<rect shape-rendering="optimizeSpeed"  x="182" y="143" width="13" height="13" fill="black" />
<rect shape-rendering="optimizeSpeed"  x="260" y="143" width="13" height="13" fill="black" />
<rect shape-rendering="optimizeSpeed"  x="273" y="143" width="13" height="13" fill="black" />
<rect shape-rendering="optimizeSpeed"  x="286" y="143" width="13" height="13" fill="black" />
<rect shape-rendering="optimizeSpeed"  x="299" y="143" width="13" height="13" fill="black" />
<rect shape-rendering="optimizeSpeed"  x="325" y="143" width="13" height="13" fill="black" />
<rect shape-rendering="optimizeSpeed"  x="351" y="143" width="13" height="13" fill="black" />
<rect shape-rendering="optimizeSpeed"  x="0" y="156" width="13" height="13" fill="black" />
<rect shape-rendering="optimizeSpeed"  x="13" y="156" width="13" height="13" fill="black" />
<rect shape-rendering="optimizeSpeed"  x="65" y="156" width="13" height="13" fill="black" />
<rect shape-rendering="optimizeSpeed"  x="78" y="156" width="13" height="13" fill="black" />
<rect shape-rendering="optimizeSpeed"  x="117" y="156" width="13" height="13" fill="black" />
<rect shape-rendering="optimizeSpeed"  x="130" y="156" width="13" height="13" fill="black" />
<rect shape-rendering="optimizeSpeed"  x="156" y="156" width="13" height="13" fill="black" />
<rect shape-rendering="optimizeSpeed"  x="169" y="156" width="13" height="13" fill="black" />
<rect shape-rendering="optimizeSpeed"  x="182" y="156" width="13" height="13" fill="black" />
<rect shape-rendering="optimizeSpeed"  x="195" y="156" width="13" height="13" fill="black" />
<rect shape-rendering="optimizeSpeed"  x="208" y="156" width="13" height="13" fill="black" />
<rect shape-rendering="optimizeSpeed"  x="221" y="156" width="13" height="13" fill="black" />
<rect shape-rendering="optimizeSpeed"  x="260" y="156" width="13" height="13" fill="black" />
<rect shape-rendering="optimizeSpeed"  x="325" y="156" width="13" height="13" fill="black" />
<rect shape-rendering="optimizeSpeed"  x="338" y="156" width="13" height="13" fill="black" />
<rect shape-rendering="optimizeSpeed"  x="0" y="169" width="13" height="13" fill="black" />
<rect shape-rendering="optimizeSpeed"  x="13" y="169" width="13" height="13" fill="black" />
<rect shape-rendering="optimizeSpeed"  x="26" y="169" width="13" height="13" fill="black" />
<rect shape-rendering="optimizeSpeed"  x="52" y="169" width="13" height="13" fill="black" />
<rect shape-rendering="optimizeSpeed"  x="169" y="169" width="13" height="13" fill="black" />
<rect shape-rendering="optimizeSpeed"  x="221" y="169" width="13" height="13" fill="black" />
<rect shape-rendering="optimizeSpeed"  x="234" y="169" width="13" height="13" fill="black" />
<rect shape-rendering="optimizeSpeed"  x="247" y="169" width="13" height="13" fill="black" />
<rect shape-rendering="optimizeSpeed"  x="260" y="169" width="13" height="13" fill="black" />
<rect shape-rendering="optimizeSpeed"  x="273" y="169" width="13" height="13" fill="black" />
<rect shape-rendering="optimizeSpeed"  x="286" y="169" width="13" height="13" fill="black" />
<rect shape-rendering="optimizeSpeed"  x="299" y="169" width="13" height="13" fill="black" />
<rect shape-rendering="optimizeSpeed"  x="312" y="169" width="13" height="13" fill="black" />
<rect shape-rendering="optimizeSpeed"  x="364" y="169" width="13" height="13" fill="black" />
<rect shape-rendering="optimizeSpeed"  x="0" y="182" width="13" height="13" fill="black" />
<rect shape-rendering="optimizeSpeed"  x="78" y="182" width="13" height="13" fill="black" />
<rect shape-rendering="optimizeSpeed"  x="91" y="182" width="13" height="13" fill="black" />
<rect shape-rendering="optimizeSpeed"  x="117" y="182" width="13" height="13" fill="black" />
<rect shape-rendering="optimizeSpeed"  x="143" y="182" width="13" height="13" fill="black" />
<rect shape-rendering="optimizeSpeed"  x="156" y="182" width="13" height="13" fill="black" />
<rect shape-rendering="optimizeSpeed"  x="182" y="182" width="13" height="13" fill="black" />
<rect shape-rendering="optimizeSpeed"  x="195" y="182" width="13" height="13" fill="black" />
<rect shape-rendering="optimizeSpeed"  x="221" y="182" width="13" height="13" fill="black" />
<rect shape-rendering="optimizeSpeed"  x="260" y="182" width="13" height="13" fill="black" />
<rect shape-rendering="optimizeSpeed"  x="273" y="182" width="13" height="13" fill="black" />
<rect shape-rendering="optimizeSpeed"  x="286" y="182" width="13" height="13" fill="black" />
<rect shape-rendering="optimizeSpeed"  x="299" y="182" width="13" height="13" fill="black" />
<rect shape-rendering="optimizeSpeed"  x="312" y="182" width="13" height="13" fill="black" />
<rect shape-rendering="optimizeSpeed"  x="325" y="182" width="13" height="13" fill="black" />
<rect shape-rendering="optimizeSpeed"  x="338" y="182" width="13" height="13" fill="black" />
<rect shape-rendering="optimizeSpeed"  x="13" y="195" width="13" height="13" fill="black" />
<rect shape-rendering="optimizeSpeed"  x="26" y="195" width="13" height="13" fill="black" />
<rect shape-rendering="optimizeSpeed"  x="52" y="195" width="13" height="13" fill="black" />
<rect shape-rendering="optimizeSpeed"  x="65" y="195" width="13" height="13" fill="black" />
<rect shape-rendering="optimizeSpeed"  x="104" y="195" width="13" height="13" fill="black" />
<rect shape-rendering="optimizeSpeed"  x="117" y="195" width="13" height="13" fill="black" />
<rect shape-rendering="optimizeSpeed"  x="143" y="195" width="13" height="13" fill="black" />
<rect shape-rendering="optimizeSpeed"  x="195" y="195" width="13" height="13" fill="black" />
<rect shape-rendering="optimizeSpeed"  x="312" y="195" width="13" height="13" fill="black" />
<rect shape-rendering="optimizeSpeed"  x="351" y="195" width="13" height="13" fill="black" />
<rect shape-rendering="optimizeSpeed"  x="26" y="208" width="13" height="13" fill="black" />
<rect shape-rendering="optimizeSpeed"  x="39" y="208" width="13" height="13" fill="black" />
<rect shape-rendering="optimizeSpeed"  x="78" y="208" width="13" height="13" fill="black" />
<rect shape-rendering="optimizeSpeed"  x="130" y="208" width="13" height="13" fill="black" />
<rect shape-rendering="optimizeSpeed"  x="143" y="208" width="13" height="13" fill="black" />
<rect shape-rendering="optimizeSpeed"  x="195" y="208" width="13" height="13" fill="black" />
<rect shape-rendering="optimizeSpeed"  x="208" y="208" width="13" height="13" fill="black" />
<rect shape-rendering="optimizeSpeed"  x="221" y="208" width="13" height="13" fill="black" />
<rect shape-rendering="optimizeSpeed"  x="234" y="208" width="13" height="13" fill="black" />
<rect shape-rendering="optimizeSpeed"  x="247" y="208" width="13" height="13" fill="black" />
<rect shape-rendering="optimizeSpeed"  x="325" y="208" width="13" height="13" fill="black" />
<rect shape-rendering="optimizeSpeed"  x="338" y="208" width="13" height="13" fill="black" />
<rect shape-rendering="optimizeSpeed"  x="0" y="221" width="13" height="13" fill="black" />
<rect shape-rendering="optimizeSpeed"  x="13" y="221" width="13" height="13" fill="black" />
<rect shape-rendering="optimizeSpeed"  x="52" y="221" width="13" height="13" fill="black" />
<rect shape-rendering="optimizeSpeed"  x="65" y="221" width="13" height="13" fill="black" />
<rect shape-rendering="optimizeSpeed"  x="91" y="221" width="13" height="13" fill="black" />
<rect shape-rendering="optimizeSpeed"  x="130" y="221" width="13" height="13" fill="black" />
<rect shape-rendering="optimizeSpeed"  x="156" y="221" width="13" height="13" fill="black" />
<rect shape-rendering="optimizeSpeed"  x="169" y="221" width="13" height="13" fill="black" />
<rect shape-rendering="optimizeSpeed"  x="221" y="221" width="13" height="13" fill="black" />
<rect shape-rendering="optimizeSpeed"  x="234" y="221" width="13" height="13" fill="black" />
<rect shape-rendering="optimizeSpeed"  x="247" y="221" width="13" height="13" fill="black" />
<rect shape-rendering="optimizeSpeed"  x="260" y="221" width="13" height="13" fill="black" />
<rect shape-rendering="optimizeSpeed"  x="286" y="221" width="13" height="13" fill="black" />
<rect shape-rendering="optimizeSpeed"  x="299" y="221" width="13" height="13" fill="black" />
<rect shape-rendering="optimizeSpeed"  x="312" y="221" width="13" height="13" fill="black" />
<rect shape-rendering="optimizeSpeed"  x="338" y="221" width="13" height="13" fill="black" />
<rect shape-rendering="optimizeSpeed"  x="364" y="221" width="13" height="13" fill="black" />
<rect shape-rendering="optimizeSpeed"  x="0" y="234" width="13" height="13" fill="black" />
<rect shape-rendering="optimizeSpeed"  x="52" y="234" width="13" height="13" fill="black" />
<rect shape-rendering="optimizeSpeed"  x="78" y="234" width="13" height="13" fill="black" />
<rect shape-rendering="optimizeSpeed"  x="130" y="234" width="13" height="13" fill="black" />
<rect shape-rendering="optimizeSpeed"  x="169" y="234" width="13" height="13" fill="black" />
<rect shape-rendering="optimizeSpeed"  x="182" y="234" width="13" height="13" fill="black" />
<rect shape-rendering="optimizeSpeed"  x="195" y="234" width="13" height="13" fill="black" />
<rect shape-rendering="optimizeSpeed"  x="221" y="234" width="13" height="13" fill="black" />
<rect shape-rendering="optimizeSpeed"  x="260" y="234" width="13" height="13" fill="black" />
<rect shape-rendering="optimizeSpeed"  x="299" y="234" width="13" height="13" fill="black" />
<rect shape-rendering="optimizeSpeed"  x="312" y="234" width="13" height="13" fill="black" />
<rect shape-rendering="optimizeSpeed"  x="338" y="234" width="13" height="13" fill="black" />
<rect shape-rendering="optimizeSpeed"  x="0" y="247" width="13" height="13" fill="black" />
<rect shape-rendering="optimizeSpeed"  x="26" y="247" width="13" height="13" fill="black" />
<rect shape-rendering="optimizeSpeed"  x="39" y="247" width="13" height="13" fill="black" />
<rect shape-rendering="optimizeSpeed"  x="65" y="247" width="13" height="13" fill="black" />
<rect shape-rendering="optimizeSpeed"  x="104" y="247" width="13" height="13" fill="black" />
<rect shape-rendering="optimizeSpeed"  x="130" y="247" width="13" height="13" fill="black" />
<rect shape-rendering="optimizeSpeed"  x="156" y="247" width="13" height="13" fill="black" />
<rect shape-rendering="optimizeSpeed"  x="169" y="247" width="13" height="13" fill="black" />
<rect shape-rendering="optimizeSpeed"  x="247" y="247" width="13" height="13" fill="black" />
<rect shape-rendering="optimizeSpeed"  x="260" y="247" width="13" height="13" fill="black" />
<rect shape-rendering="optimizeSpeed"  x="273" y="247" width="13" height="13" fill="black" />
<rect shape-rendering="optimizeSpeed"  x="351" y="247" width="13" height="13" fill="black" />
<rect shape-rendering="optimizeSpeed"  x="0" y="260" width="13" height="13" fill="black" />
<rect shape-rendering="optimizeSpeed"  x="65" y="260" width="13" height="13" fill="black" />
<rect shape-rendering="optimizeSpeed"  x="78" y="260" width="13" height="13" fill="black" />
<rect shape-rendering="optimizeSpeed"  x="91" y="260" width="13" height="13" fill="black" />
<rect shape-rendering="optimizeSpeed"  x="130" y="260" width="13" height="13" fill="black" />
<rect shape-rendering="optimizeSpeed"  x="156" y="260" width="13" height="13" fill="black" />
<rect shape-rendering="optimizeSpeed"  x="182" y="260" width="13" height="13" fill="black" />
<rect shape-rendering="optimizeSpeed"  x="195" y="260" width="13" height="13" fill="black" />
<rect shape-rendering="optimizeSpeed"  x="208" y="260" width="13" height="13" fill="black" />
<rect shape-rendering="optimizeSpeed"  x="221" y="260" width="13" height="13" fill="black" />
<rect shape-rendering="optimizeSpeed"  x="260" y="260" width="13" height="13" fill="black" />
<rect shape-rendering="optimizeSpeed"  x="273" y="260" width="13" height="13" fill="black" />
<rect shape-rendering="optimizeSpeed"  x="286" y="260" width="13" height="13" fill="black" />
<rect shape-rendering="optimizeSpeed"  x="299" y="260" width="13" height="13" fill="black" />
<rect shape-rendering="optimizeSpeed"  x="312" y="260" width="13" height="13" fill="black" />
<rect shape-rendering="optimizeSpeed"  x="338" y="260" width="13" height="13" fill="black" />
<rect shape-rendering="optimizeSpeed"  x="351" y="260" width="13" height="13" fill="black" />
<rect shape-rendering="optimizeSpeed"  x="364" y="260" width="13" height="13" fill="black" />
<rect shape-rendering="optimizeSpeed"  x="104" y="273" width="13" height="13" fill="black" />
<rect shape-rendering="optimizeSpeed"  x="117" y="273" width="13" height="13" fill="black" />
<rect shape-rendering="optimizeSpeed"  x="260" y="273" width="13" height="13" fill="black" />
<rect shape-rendering="optimizeSpeed"  x="312" y="273" width="13" height="13" fill="black" />
<rect shape-rendering="optimizeSpeed"  x="325" y="273" width="13" height="13" fill="black" />
<rect shape-rendering="optimizeSpeed"  x="338" y="273" width="13" height="13" fill="black" />
<rect shape-rendering="optimizeSpeed"  x="351" y="273" width="13" height="13" fill="black" />
<rect shape-rendering="optimizeSpeed"  x="364" y="273" width="13" height="13" fill="black" />
<rect shape-rendering="optimizeSpeed"  x="0" y="286" width="13" height="13" fill="black" />
<rect shape-rendering="optimizeSpeed"  x="13" y="286" width="13" height="13" fill="black" />
<rect shape-rendering="optimizeSpeed"  x="26" y="286" width="13" height="13" fill="black" />
<rect shape-rendering="optimizeSpeed"  x="39" y="286" width="13" height="13" fill="black" />
<rect shape-rendering="optimizeSpeed"  x="52" y="286" width="13" height="13" fill="black" />
<rect shape-rendering="optimizeSpeed"  x="65" y="286" width="13" height="13" fill="black" />
<rect shape-rendering="optimizeSpeed"  x="78" y="286" width="13" height="13" fill="black" />
<rect shape-rendering="optimizeSpeed"  x="104" y="286" width="13" height="13" fill="black" />
<rect shape-rendering="optimizeSpeed"  x="117" y="286" width="13" height="13" fill="black" />
<rect shape-rendering="optimizeSpeed"  x="143" y="286" width="13" height="13" fill="black" />
<rect shape-rendering="optimizeSpeed"  x="156" y="286" width="13" height="13" fill="black" />
<rect shape-rendering="optimizeSpeed"  x="195" y="286" width="13" height="13" fill="black" />
<rect shape-rendering="optimizeSpeed"  x="208" y="286" width="13" height="13" fill="black" />
<rect shape-rendering="optimizeSpeed"  x="221" y="286" width="13" height="13" fill="black" />
<rect shape-rendering="optimizeSpeed"  x="247" y="286" width="13" height="13" fill="black" />
<rect shape-rendering="optimizeSpeed"  x="260" y="286" width="13" height="13" fill="black" />
<rect shape-rendering="optimizeSpeed"  x="286" y="286" width="13" height="13" fill="black" />
<rect shape-rendering="optimizeSpeed"  x="312" y="286" width="13" height="13" fill="black" />
<rect shape-rendering="optimizeSpeed"  x="325" y="286" width="13" height="13" fill="black" />
<rect shape-rendering="optimizeSpeed"  x="338" y="286" width="13" height="13" fill="black" />
<rect shape-rendering="optimizeSpeed"  x="0" y="299" width="13" height="13" fill="black" />
<rect shape-rendering="optimizeSpeed"  x="78" y="299" width="13" height="13" fill="black" />
<rect shape-rendering="optimizeSpeed"  x="143" y="299" width="13" height="13" fill="black" />
<rect shape-rendering="optimizeSpeed"  x="182" y="299" width="13" height="13" fill="black" />
<rect shape-rendering="optimizeSpeed"  x="195" y="299" width="13" height="13" fill="black" />
<rect shape-rendering="optimizeSpeed"  x="208" y="299" width="13" height="13" fill="black" />
<rect shape-rendering="optimizeSpeed"  x="247" y="299" width="13" height="13" fill="black" />
<rect shape-rendering="optimizeSpeed"  x="260" y="299" width="13" height="13" fill="black" />
<rect shape-rendering="optimizeSpeed"  x="312" y="299" width="13" height="13" fill="black" />
<rect shape-rendering="optimizeSpeed"  x="351" y="299" width="13" height="13" fill="black" />
<rect shape-rendering="optimizeSpeed"  x="0" y="312" width="13" height="13" fill="black" />
<rect shape-rendering="optimizeSpeed"  x="26" y="312" width="13" height="13" fill="black" />
<rect shape-rendering="optimizeSpeed"  x="39" y="312" width="13" height="13" fill="black" />
<rect shape-rendering="optimizeSpeed"  x="52" y="312" width="13" height="13" fill="black" />
<rect shape-rendering="optimizeSpeed"  x="78" y="312" width="13" height="13" fill="black" />
<rect shape-rendering="optimizeSpeed"  x="104" y="312" width="13" height="13" fill="black" />
<rect shape-rendering="optimizeSpeed"  x="130" y="312" width="13" height="13" fill="black" />
<rect shape-rendering="optimizeSpeed"  x="143" y="312" width="13" height="13" fill="black" />
<rect shape-rendering="optimizeSpeed"  x="195" y="312" width="13" height="13" fill="black" />
<rect shape-rendering="optimizeSpeed"  x="221" y="312" width="13" height="13" fill="black" />
<rect shape-rendering="optimizeSpeed"  x="260" y="312" width="13" height="13" fill="black" />
<rect shape-rendering="optimizeSpeed"  x="273" y="312" width="13" height="13" fill="black" />
<rect shape-rendering="optimizeSpeed"  x="286" y="312" width="13" height="13" fill="black" />
<rect shape-rendering="optimizeSpeed"  x="299" y="312" width="13" height="13" fill="black" />
<rect shape-rendering="optimizeSpeed"  x="312" y="312" width="13" height="13" fill="black" />
<rect shape-rendering="optimizeSpeed"  x="338" y="312" width="13" height="13" fill="black" />
<rect shape-rendering="optimizeSpeed"  x="351" y="312" width="13" height="13" fill="black" />
<rect shape-rendering="optimizeSpeed"  x="364" y="312" width="13" height="13" fill="black" />
<rect shape-rendering="optimizeSpeed"  x="0" y="325" width="13" height="13" fill="black" />
<rect shape-rendering="optimizeSpeed"  x="26" y="325" width="13" height="13" fill="black" />
<rect shape-rendering="optimizeSpeed"  x="39" y="325" width="13" height="13" fill="black" />
<rect shape-rendering="optimizeSpeed"  x="52" y="325" width="13" height="13" fill="black" />
<rect shape-rendering="optimizeSpeed"  x="78" y="325" width="13" height="13" fill="black" />
<rect shape-rendering="optimizeSpeed"  x="104" y="325" width="13" height="13" fill="black" />
<rect shape-rendering="optimizeSpeed"  x="117" y="325" width="13" height="13" fill="black" />
<rect shape-rendering="optimizeSpeed"  x="156" y="325" width="13" height="13" fill="black" />
<rect shape-rendering="optimizeSpeed"  x="169" y="325" width="13" height="13" fill="black" />
<rect shape-rendering="optimizeSpeed"  x="182" y="325" width="13" height="13" fill="black" />
<rect shape-rendering="optimizeSpeed"  x="208" y="325" width="13" height="13" fill="black" />
<rect shape-rendering="optimizeSpeed"  x="221" y="325" width="13" height="13" fill="black" />
<rect shape-rendering="optimizeSpeed"  x="234" y="325" width="13" height="13" fill="black" />
<rect shape-rendering="optimizeSpeed"  x="260" y="325" width="13" height="13" fill="black" />
<rect shape-rendering="optimizeSpeed"  x="299" y="325" width="13" height="13" fill="black" />
<rect shape-rendering="optimizeSpeed"  x="325" y="325" width="13" height="13" fill="black" />
<rect shape-rendering="optimizeSpeed"  x="338" y="325" width="13" height="13" fill="black" />
<rect shape-rendering="optimizeSpeed"  x="351" y="325" width="13" height="13" fill="black" />
<rect shape-rendering="optimizeSpeed"  x="364" y="325" width="13" height="13" fill="black" />
<rect shape-rendering="optimizeSpeed"  x="0" y="338" width="13" height="13" fill="black" />
<rect shape-rendering="optimizeSpeed"  x="26" y="338" width="13" height="13" fill="black" />
<rect shape-rendering="optimizeSpeed"  x="39" y="338" width="13" height="13" fill="black" />
<rect shape-rendering="optimizeSpeed"  x="52" y="338" width="13" height="13" fill="black" />
<rect shape-rendering="optimizeSpeed"  x="78" y="338" width="13" height="13" fill="black" />
<rect shape-rendering="optimizeSpeed"  x="104" y="338" width="13" height="13" fill="black" />
<rect shape-rendering="optimizeSpeed"  x="130" y="338" width="13" height="13" fill="black" />
<rect shape-rendering="optimizeSpeed"  x="169" y="338" width="13" height="13" fill="black" />
<rect shape-rendering="optimizeSpeed"  x="182" y="338" width="13" height="13" fill="black" />
<rect shape-rendering="optimizeSpeed"  x="195" y="338" width="13" height="13" fill="black" />
<rect shape-rendering="optimizeSpeed"  x="234" y="338" width="13" height="13" fill="black" />
<rect shape-rendering="optimizeSpeed"  x="247" y="338" width="13" height="13" fill="black" />
<rect shape-rendering="optimizeSpeed"  x="260" y="338" width="13" height="13" fill="black" />
<rect shape-rendering="optimizeSpeed"  x="286" y="338" width="13" height="13" fill="black" />
<rect shape-rendering="optimizeSpeed"  x="299" y="338" width="13" height="13" fill="black" />
<rect shape-rendering="optimizeSpeed"  x="312" y="338" width="13" height="13" fill="black" />
<rect shape-rendering="optimizeSpeed"  x="325" y="338" width="13" height="13" fill="black" />
<rect shape-rendering="optimizeSpeed"  x="338" y="338" width="13" height="13" fill="black" />
<rect shape-rendering="optimizeSpeed"  x="351" y="338" width="13" height="13" fill="black" />
<rect shape-rendering="optimizeSpeed"  x="0" y="351" width="13" height="13" fill="black" />
<rect shape-rendering="optimizeSpeed"  x="78" y="351" width="13" height="13" fill="black" />
<rect shape-rendering="optimizeSpeed"  x="104" y="351" width="13" height="13" fill="black" />
<rect shape-rendering="optimizeSpeed"  x="117" y="351" width="13" height="13" fill="black" />
<rect shape-rendering="optimizeSpeed"  x="130" y="351" width="13" height="13" fill="black" />
<rect shape-rendering="optimizeSpeed"  x="156" y="351" width="13" height="13" fill="black" />
<rect shape-rendering="optimizeSpeed"  x="169" y="351" width="13" height="13" fill="black" />
<rect shape-rendering="optimizeSpeed"  x="208" y="351" width="13" height="13" fill="black" />
<rect shape-rendering="optimizeSpeed"  x="260" y="351" width="13" height="13" fill="black" />
<rect shape-rendering="optimizeSpeed"  x="273" y="351" width="13" height="13" fill="black" />
<rect shape-rendering="optimizeSpeed"  x="286" y="351" width="13" height="13" fill="black" />
<rect shape-rendering="optimizeSpeed"  x="325" y="351" width="13" height="13" fill="black" />
<rect shape-rendering="optimizeSpeed"  x="351" y="351" width="13" height="13" fill="black" />
<rect shape-rendering="optimizeSpeed"  x="0" y="364" width="13" height="13" fill="black" />
<rect shape-rendering="optimizeSpeed"  x="13" y="364" width="13" height="13" fill="black" />
<rect shape-rendering="optimizeSpeed"  x="26" y="364" width="13" height="13" fill="black" />
<rect shape-rendering="optimizeSpeed"  x="39" y="364" width="13" height="13" fill="black" />
<rect shape-rendering="optimizeSpeed"  x="52" y="364" width="13" height="13" fill="black" />
<rect shape-rendering="optimizeSpeed"  x="65" y="364" width="13" height="13" fill="black" />
<rect shape-rendering="optimizeSpeed"  x="78" y="364" width="13" height="13" fill="black" />
<rect shape-rendering="optimizeSpeed"  x="104" y="364" width="13" height="13" fill="black" />
<rect shape-rendering="optimizeSpeed"  x="130" y="364" width="13" height="13" fill="black" />
<rect shape-rendering="optimizeSpeed"  x="156" y="364" width="13" height="13" fill="black" />
<rect shape-rendering="optimizeSpeed"  x="182" y="364" width="13" height="13" fill="black" />
<rect shape-rendering="optimizeSpeed"  x="221" y="364" width="13" height="13" fill="black" />
<rect shape-rendering="optimizeSpeed"  x="273" y="364" width="13" height="13" fill="black" />
<rect shape-rendering="optimizeSpeed"  x="286" y="364" width="13" height="13" fill="black" />
<rect shape-rendering="optimizeSpeed"  x="312" y="364" width="13" height="13" fill="black" />
<rect shape-rendering="optimizeSpeed"  x="325" y="364" width="13" height="13" fill="black" />
<rect shape-rendering="optimizeSpeed"  x="338" y="364" width="13" height="13" fill="black" /></svg>